<?xml version="1.0" standalone="no"?>
<!DOCTYPE svg PUBLIC "-//W3C//DTD SVG 20010904//EN"
 "http://www.w3.org/TR/2001/REC-SVG-20010904/DTD/svg10.dtd">
<svg version="1.0" xmlns="http://www.w3.org/2000/svg"
 width="512.000000pt" height="512.000000pt" viewBox="0 0 512.000000 512.000000"
 preserveAspectRatio="xMidYMid meet">
<metadata>
Created by potrace 1.11, written by Peter Selinger 2001-2013
</metadata>
<g transform="translate(0.000000,512.000000) scale(0.100000,-0.100000)"
fill="#000000" stroke="none">
<path d="M2122 5103 c-52 -25 -77 -69 -77 -133 0 -41 6 -63 22 -86 38 -53 75
-64 217 -64 l126 0 0 -110 0 -110 -42 0 c-114 0 -378 -55 -558 -116 -111 -38
-332 -140 -415 -192 l-50 -31 -85 83 c-102 100 -150 133 -221 152 -101 26
-206 11 -293 -43 -55 -34 -296 -276 -331 -332 -40 -65 -58 -134 -53 -216 6
-106 39 -168 153 -284 l94 -96 -31 -50 c-56 -90 -156 -307 -196 -430 -87 -261
-117 -454 -117 -745 1 -387 67 -675 234 -1015 335 -681 968 -1142 1731 -1262
160 -25 489 -24 655 1 413 63 791 227 1110 481 98 78 263 243 350 350 212 261
368 576 449 906 45 185 60 318 60 534 1 293 -28 477 -116 740 -193 583 -620
1071 -1173 1340 -230 112 -494 189 -742 217 l-113 12 0 108 0 108 122 0 c150
0 195 16 227 84 26 53 26 79 0 132 -15 31 -32 48 -63 63 -41 20 -59 21 -442
21 -347 0 -403 -3 -432 -17z m288 -1200 c0 -114 3 -132 23 -167 30 -53 79 -78
140 -73 57 5 95 30 119 78 14 27 18 60 18 160 l0 126 63 -9 c391 -51 729 -218
1007 -497 256 -257 421 -577 479 -931 6 -36 14 -79 16 -96 l6 -32 -128 -3
c-107 -3 -134 -7 -163 -24 -102 -61 -97 -208 10 -262 38 -20 60 -23 163 -23
l118 0 -5 -32 c-23 -136 -30 -172 -47 -243 -163 -654 -731 -1173 -1394 -1275
-38 -6 -82 -13 -97 -16 l-28 -6 0 127 c0 142 -11 180 -62 216 -70 50 -174 26
-216 -50 -19 -34 -22 -54 -22 -165 0 -145 12 -133 -120 -112 -609 100 -1126
521 -1344 1094 -50 131 -105 361 -106 443 0 14 18 17 128 21 103 3 133 7 160
23 95 57 98 195 6 256 -25 16 -49 19 -161 19 -154 0 -142 -13 -119 130 61 368
230 694 497 957 252 249 563 410 914 473 161 29 145 41 145 -107z"/>
<path d="M2500 3127 c-81 -43 -80 -35 -80 -507 0 -468 -1 -463 76 -507 37 -22
50 -23 252 -23 177 0 220 3 248 16 102 49 111 197 15 261 -31 21 -46 23 -162
23 l-129 0 0 321 c0 309 -1 323 -21 359 -24 43 -83 80 -126 80 -17 0 -49 -10
-73 -23z"/>
</g>
</svg>
